<svg width="49" height="49" viewBox="0 0 49 49" fill="none" xmlns="http://www.w3.org/2000/svg">
<path d="M38.7032 26.1601H10.7032V40.1601H38.7032V26.1601ZM38.7032 22.1601C38.7032 18.4471 37.2283 14.8861 34.6027 12.2606C31.9772 9.63511 28.4163 8.16012 24.7032 8.16012C20.9902 8.16012 17.4293 9.63511 14.8038 12.2606C12.1782 14.8861 10.7032 18.4471 10.7032 22.1601H38.7032ZM13.4672 8.09612C16.6547 5.54225 20.6189 4.15361 24.7032 4.16012C28.9532 4.16012 32.8592 5.63212 35.9392 8.09612L38.8452 5.19012L41.6732 8.01812L38.7672 10.9241C41.3211 14.1116 42.7098 18.0757 42.7032 22.1601V42.1601C42.7032 42.6906 42.4925 43.1993 42.1175 43.5743C41.7424 43.9494 41.2337 44.1601 40.7032 44.1601H8.70325C8.17281 44.1601 7.66411 43.9494 7.28903 43.5743C6.91396 43.1993 6.70325 42.6906 6.70325 42.1601V22.1601C6.70325 17.9101 8.17525 14.0041 10.6392 10.9241L7.73325 8.02012L10.5612 5.19212L13.4672 8.09812V8.09612ZM18.7032 18.1601C18.1728 18.1601 17.6641 17.9494 17.289 17.5743C16.914 17.1993 16.7032 16.6906 16.7032 16.1601C16.7032 15.6297 16.914 15.121 17.289 14.7459C17.6641 14.3708 18.1728 14.1601 18.7032 14.1601C19.2337 14.1601 19.7424 14.3708 20.1175 14.7459C20.4925 15.121 20.7032 15.6297 20.7032 16.1601C20.7032 16.6906 20.4925 17.1993 20.1175 17.5743C19.7424 17.9494 19.2337 18.1601 18.7032 18.1601ZM30.7032 18.1601C30.1728 18.1601 29.6641 17.9494 29.289 17.5743C28.914 17.1993 28.7032 16.6906 28.7032 16.1601C28.7032 15.6297 28.914 15.121 29.289 14.7459C29.6641 14.3708 30.1728 14.1601 30.7032 14.1601C31.2337 14.1601 31.7424 14.3708 32.1175 14.7459C32.4925 15.121 32.7032 15.6297 32.7032 16.1601C32.7032 16.6906 32.4925 17.1993 32.1175 17.5743C31.7424 17.9494 31.2337 18.1601 30.7032 18.1601Z" fill="#3DDC84"/>
</svg>
